<?xml version="1.0" encoding="iso-8859-1"?>
<!-- Generator: Adobe Illustrator 19.0.0, SVG Export Plug-In . SVG Version: 6.00 Build 0)  -->
<svg version="1.1" id="Layer_1" xmlns="http://www.w3.org/2000/svg" xmlns:xlink="http://www.w3.org/1999/xlink" x="0px" y="0px"
	 viewBox="0 0 286.054 286.054" style="enable-background:new 0 0 286.054 286.054;" xml:space="preserve">
<g>
	<path style="fill:#2394BC;" d="M47.95,164.364c-7.625,12.837-1.386,23.34,13.856,23.34h36.526v80.453
		c0,9.887,8.01,17.896,17.878,17.896h53.635c9.869,0,17.878-8.009,17.878-17.896v-80.453h36.517
		c15.241,0,21.481-10.495,13.856-23.34l-81.212-83.233c-11.04-11.031-17.101-10.62-27.72,0
		C129.162,81.131,47.95,164.364,47.95,164.364z M286.054,26.808v-8.939c0-9.878-8.01-17.869-17.878-17.869H17.878
		C8.01-0.001,0,7.991,0,17.868v8.939c0,9.869,8.01,17.878,17.878,17.878h250.297C278.044,44.686,286.054,36.676,286.054,26.808z"/>
</g>
<g>
</g>
<g>
</g>
<g>
</g>
<g>
</g>
<g>
</g>
<g>
</g>
<g>
</g>
<g>
</g>
<g>
</g>
<g>
</g>
<g>
</g>
<g>
</g>
<g>
</g>
<g>
</g>
<g>
</g>
</svg>
