<?xml version="1.0" encoding="UTF-8"?>
<svg version="1.1" xmlns="http://www.w3.org/2000/svg" viewBox="0 0 24 24">
  <path style="fill:#2394BC;" d="M7.71 3.5L1.15 15l3.43 5.97L11.14 9.47 7.71 3.5zm1.14 0l6.86 11.88H22.85l-3.43-5.97L12.28 3.5H8.85zm7.43 12.88H2.58l-1.43 2.5 3.43 5.97 6.86-11.88 4.84 0-0.86-1.47 3.43 5.97h-6.86l1.14-1.97H8.28l3.43 5.97L22.85 15l-3.43-5.97-2.14 3.72.57.98-1.14 1.97H9.85l-3.43 5.97 3.43-5.97z"/>
  <path style="fill:#2394BC;" d="M8 16h8l-4-7z M1 15l3.5 6h7L8 14H1zm14-9.5L8.5 16H22l-3.5-6L15 5.5z"/>
</svg>
